<svg xmlns="http://www.w3.org/2000/svg" width="638" height="88" viewBox="0 0 638 88" fill="none">

  <g mask="url(#path21-mask)">
    <path d="M1 25L9.01223 35.8401C9.33406 36.2755 9.74094 36.641 10.2082 36.9146L27.6826 47.1434C29.0842 47.9639 30.8429 47.8554 32.1331 46.8688L33.6194 45.7323C35.9165 43.9756 39.2612 45.162 39.9381 47.9735L44.9203 68.6688C44.9733 68.8891 45.0472 69.1039 45.141 69.3102V69.3102C46.2313 71.7089 49.4561 72.1392 51.1372 70.1102L59.4769 60.0452C60.875 58.3578 63.3705 58.1095 65.0737 59.4883L71.3993 64.609C72.1115 65.1855 72.9999 65.5 73.9161 65.5H75.2505C76.0641 65.5 76.8584 65.7481 77.5273 66.2112L93.7791 77.4625C95.1211 78.3915 96.8928 78.412 98.2559 77.5144L114.847 66.5886C115.889 65.9026 117.191 65.7418 118.368 66.1539L125.777 68.7469C126.255 68.9141 126.76 68.9891 127.266 68.9679L209.076 65.5387C209.684 65.5132 210.29 65.6267 210.847 65.8706L218 69L230.253 74.1839C230.746 74.3925 231.276 74.5 231.811 74.5H260.718C261.552 74.5 262.365 74.7605 263.043 75.2451L267.957 78.7549C268.635 79.2395 269.448 79.5 270.282 79.5H321.94C322.311 79.5 322.681 79.5518 323.039 79.6539L335.961 83.3461C336.319 83.4482 336.689 83.5 337.06 83.5H368.492C369.153 83.5 369.805 83.6643 370.388 83.9781L374.931 86.4242C375.628 86.7996 376.421 86.9597 377.209 86.8841L411.823 83.5649C412.271 83.5219 412.709 83.4037 413.117 83.215L424.702 77.8682C425.228 77.6256 425.8 77.5 426.379 77.5H433.594C434.19 77.5 434.779 77.3666 435.318 77.1096L488.702 51.6198C489.541 51.2192 490.493 51.1234 491.396 51.3489L499.093 53.2733C499.69 53.4224 500.312 53.4321 500.913 53.3015L511.5 51L523.806 47.4841C524.885 47.1757 526.045 47.3352 527.001 47.9236L529.979 49.7564C531.225 50.5231 532.79 50.5485 534.06 49.8228L538.521 47.2738C538.839 47.0921 539.18 46.955 539.535 46.8662L548.938 44.5156C550.227 44.1932 551.272 43.2513 551.727 42.002L552.273 40.498C552.728 39.2487 553.773 38.3068 555.062 37.9844L567.078 34.9805C568.289 34.6777 569.572 34.9577 570.547 35.7376L571.987 36.8897C573.213 37.8702 574.899 38.0433 576.298 37.3321L604.5 23L622.334 10.9502C622.773 10.6531 623.268 10.4464 623.789 10.3423L631.812 8.73752C632.587 8.58264 633.298 8.20202 633.856 7.64362L635.328 6.17157C636.079 5.42143 636.5 4.40401 636.5 3.34315V0" stroke="#304143" stroke-width="2" style="stroke-dashoffset: 0; stroke-dasharray: none;"></path>
  </g>

  <mask id="path21-mask" style="mask-type: alpha" maskUnits="userSpaceOnUse" x="0" y="0" width="638" height="88">
    <path d="M1 25L9.01223 35.8401C9.33406 36.2755 9.74094 36.641 10.2082 36.9146L27.6826 47.1434C29.0842 47.9639 30.8429 47.8554 32.1331 46.8688L33.6194 45.7323C35.9165 43.9756 39.2612 45.162 39.9381 47.9735L44.9203 68.6688C44.9733 68.8891 45.0472 69.1039 45.141 69.3102V69.3102C46.2313 71.7089 49.4561 72.1392 51.1372 70.1102L59.4769 60.0452C60.875 58.3578 63.3705 58.1095 65.0737 59.4883L71.3993 64.609C72.1115 65.1855 72.9999 65.5 73.9161 65.5H75.2505C76.0641 65.5 76.8584 65.7481 77.5273 66.2112L93.7791 77.4625C95.1211 78.3915 96.8928 78.412 98.2559 77.5144L114.847 66.5886C115.889 65.9026 117.191 65.7418 118.368 66.1539L125.777 68.7469C126.255 68.9141 126.76 68.9891 127.266 68.9679L209.076 65.5387C209.684 65.5132 210.29 65.6267 210.847 65.8706L218 69L230.253 74.1839C230.746 74.3925 231.276 74.5 231.811 74.5H260.718C261.552 74.5 262.365 74.7605 263.043 75.2451L267.957 78.7549C268.635 79.2395 269.448 79.5 270.282 79.5H321.94C322.311 79.5 322.681 79.5518 323.039 79.6539L335.961 83.3461C336.319 83.4482 336.689 83.5 337.06 83.5H368.492C369.153 83.5 369.805 83.6643 370.388 83.9781L374.931 86.4242C375.628 86.7996 376.421 86.9597 377.209 86.8841L411.823 83.5649C412.271 83.5219 412.709 83.4037 413.117 83.215L424.702 77.8682C425.228 77.6256 425.8 77.5 426.379 77.5H433.594C434.19 77.5 434.779 77.3666 435.318 77.1096L488.702 51.6198C489.541 51.2192 490.493 51.1234 491.396 51.3489L499.093 53.2733C499.69 53.4224 500.312 53.4321 500.913 53.3015L511.5 51L523.806 47.4841C524.885 47.1757 526.045 47.3352 527.001 47.9236L529.979 49.7564C531.225 50.5231 532.79 50.5485 534.06 49.8228L538.521 47.2738C538.839 47.0921 539.18 46.955 539.535 46.8662L548.938 44.5156C550.227 44.1932 551.272 43.2513 551.727 42.002L552.273 40.498C552.728 39.2487 553.773 38.3068 555.062 37.9844L567.078 34.9805C568.289 34.6777 569.572 34.9577 570.547 35.7376L571.987 36.8897C573.213 37.8702 574.899 38.0433 576.298 37.3321L604.5 23L622.334 10.9502C622.773 10.6531 623.268 10.4464 623.789 10.3423L631.812 8.73752C632.587 8.58264 633.298 8.20202 633.856 7.64362L635.328 6.17157C636.079 5.42143 636.5 4.40401 636.5 3.34315V0" stroke="#304143" stroke-width="2" stroke-dasharray="4 4"></path>
  </mask>
</svg>